Coordinates
version=1
nRows=15
nColumns=46
inDegrees=yes

Units are S.I. units (second, meters, Newtons, ...)
Angles are in degrees.

endheader
time	pelvis_tilt	pelvis_list	pelvis_rotation	pelvis_tx	pelvis_ty	pelvis_tz	bb_angle	bb_tx	bb_ty	bb_tz	hip_flexion_r	hip_adduction_r	hip_rotation_r	knee_angle_r	knee_angle_r_beta	ankle_angle_r	subtalar_angle_r	mtp_angle_r	crank_angle_r	hip_flexion_l	hip_adduction_l	hip_rotation_l	knee_angle_l	knee_angle_l_beta	ankle_angle_l	subtalar_angle_l	mtp_angle_l	crank_angle_l	lumbar_extension	lumbar_bending	lumbar_rotation	arm_flex_r	arm_add_r	arm_rot_r	elbow_flex_r	pro_sup_r	wrist_flex_r	wrist_dev_r	arm_flex_l	arm_add_l	arm_rot_l	elbow_flex_l	pro_sup_l	wrist_flex_l	wrist_dev_l
      2.50500000	    -20.78765202	     -8.12409918	    -17.31631543	      0.34674851	      1.23275474	     -0.27206008	      0.00000000	      0.50000000	      0.00000000	      0.25000000	     62.52297827	      9.72021976	      4.06872969	     84.64984925	      1.47741858	     20.18872908	      4.64429926	      0.00000000	      0.00000000	     21.59709883	    -12.93109593	     -5.26273587	     36.32439118	      0.63398022	    -20.93903720	    -11.95803997	      0.00000000	      0.00000000	    -61.53171260	      8.51887552	      8.18409672	     67.15748904	     -0.96179095	     35.61546166	     54.82460900	     47.06845227	      0.00000000	      0.00000000	     44.78367258	    -16.73617042	     10.98674916	     65.85094789	     48.37517224	      0.00000000	      0.00000000
      2.51000000	    -20.80022324	     -7.88512512	    -17.44519514	      0.34644415	      1.23322759	     -0.27239538	      0.00000000	      0.50000000	      0.00000000	      0.25000000	     61.69629159	      9.64862944	      4.15699183	     82.59665178	      1.44158352	     20.63516444	      3.86518966	      0.00000000	      0.00000000	     22.78667644	    -12.61926984	     -4.85807464	     38.81009731	      0.67736398	    -21.62604981	    -13.13191794	      0.00000000	      0.00000000	    -61.95945503	      8.17086313	      8.42084913	     66.57008554	     -1.13164515	     33.93935169	     56.90398805	     46.90159149	      0.00000000	      0.00000000	     44.80791863	    -16.44280175	     10.58118317	     66.84863803	     48.01161200	      0.00000000	      0.00000000
      2.51500000	    -20.52702217	     -7.37108768	    -17.28087725	      0.34627638	      1.23372543	     -0.27333086	      0.00000000	      0.50000000	      0.00000000	      0.25000000	     60.67808670	      9.04335113	      4.33830918	     80.62004350	      1.40708520	     21.01829227	      3.40334337	      0.00000000	      0.00000000	     23.65874260	    -11.69473403	     -4.19080033	     40.97027016	      0.71506611	    -22.71344340	    -14.80985340	      0.00000000	      0.00000000	    -62.45852177	      7.82536743	      8.17776059	     66.62098910	     -1.69571708	     34.02910845	     57.98878440	     47.15695324	      0.00000000	      0.00000000	     45.15323962	    -16.30976216	     10.79419671	     67.35819243	     48.24645672	      0.00000000	      0.00000000
      2.52000000	    -20.36898274	     -7.00319104	    -17.17851922	      0.34614110	      1.23379104	     -0.27387559	      0.00000000	      0.50000000	      0.00000000	      0.25000000	     59.67733064	      8.68639978	      4.54520121	     78.56441147	      1.37120766	     21.64590042	      3.30599299	      0.00000000	      0.00000000	     24.62109018	    -11.07888684	     -3.74699380	     43.25362895	      0.75491824	    -23.28021834	    -15.91082757	      0.00000000	      0.00000000	    -62.92765806	      7.47764111	      8.22668432	     66.01301886	     -2.30519193	     32.94298572	     60.33643538	     47.57115394	      0.00000000	      0.00000000	     45.33651821	    -16.04329581	     10.87792481	     68.23096474	     48.68301375	      0.00000000	      0.00000000
      2.52500000	    -20.16932067	     -6.69383340	    -16.92726362	      0.34593766	      1.23358578	     -0.27448264	      0.00000000	      0.50000000	      0.00000000	      0.25000000	     58.65877378	      8.22311333	      4.63625784	     76.54022373	      1.33587891	     21.81036098	      3.10487823	      0.00000000	      0.00000000	     25.54383944	    -10.45372034	     -3.21921423	     45.55653598	      0.79511155	    -23.54746822	    -16.88452657	      0.00000000	      0.00000000	    -63.36644983	      7.30996837	      8.22241593	     65.48806830	     -2.57064520	     31.64953153	     62.02136846	     47.83210983	      0.00000000	      0.00000000	     45.59327616	    -15.75985713	     10.98344716	     68.76999110	     49.03078450	      0.00000000	      0.00000000
      2.53000000	    -19.86774693	     -6.34745850	    -16.47819729	      0.34586673	      1.23296553	     -0.27556281	      0.00000000	      0.50000000	      0.00000000	      0.25000000	     57.71448099	      7.37409344	      4.53625011	     74.66916608	      1.30322280	     21.57591448	      3.39906405	      0.00000000	      0.00000000	     26.36141783	     -9.62671381	     -2.55627034	     47.85865692	      0.83529114	    -23.51949258	    -17.84232970	      0.00000000	      0.00000000	    -63.76925807	      7.39021933	      7.92143782	     65.26086890	     -2.61947293	     31.00721459	     62.92008347	     47.95200806	      0.00000000	      0.00000000	     45.78165885	    -15.64985498	     11.01716437	     69.07336436	     49.16529854	      0.00000000	      0.00000000
      2.53500000	    -19.67445462	     -5.95452058	    -16.01899774	      0.34569395	      1.23198802	     -0.27651405	      0.00000000	      0.50000000	      0.00000000	      0.25000000	     56.79100890	      6.59616671	      4.61849964	     72.77479423	      1.27015977	     21.62036306	      3.99910518	      0.00000000	      0.00000000	     27.27518444	     -8.81019477	     -2.04509434	     50.16903693	      0.87561488	    -23.22017317	    -18.78535990	      0.00000000	      0.00000000	    -64.01077817	      7.42762953	      7.63889477	     64.82209172	     -2.71878033	     30.10677209	     64.15259724	     48.10150330	      0.00000000	      0.00000000	     45.94412840	    -15.49538857	     11.04382960	     69.56176532	     49.33073217	      0.00000000	      0.00000000
      2.54000000	    -19.73839437	     -5.66365038	    -15.68004324	      0.34528271	      1.23052058	     -0.27690442	      0.00000000	      0.50000000	      0.00000000	      0.25000000	     55.91105246	      6.26049828	      4.85263395	     70.72777239	      1.23443250	     21.67365748	      3.88838312	      0.00000000	      0.00000000	     28.41885264	     -8.29864057	     -1.67305518	     52.54841428	      0.91714285	    -22.58867454	    -19.38858507	      0.00000000	      0.00000000	    -64.10747963	      7.31992770	      7.96798137	     63.54580377	     -3.16665207	     27.83645543	     66.95941038	     48.44098538	      0.00000000	      0.00000000	     46.16685825	    -14.89070729	     11.26037292	     70.31230629	     49.71083542	      0.00000000	      0.00000000
      2.54500000	    -19.67295968	     -5.40086737	    -15.08159041	      0.34492603	      1.22874398	     -0.27774721	      0.00000000	      0.50000000	      0.00000000	      0.25000000	     55.05486248	      5.58167410	      4.82494050	     68.85887009	      1.20181400	     21.43177762	      4.14493527	      0.00000000	      0.00000000	     29.46003150	     -7.57227108	     -1.05047035	     54.95720894	      0.95918424	    -21.86456330	    -20.25036352	      0.00000000	      0.00000000	    -64.10721942	      7.55424314	      7.87377067	     62.97102758	     -3.35926886	     27.00452541	     68.03922270	     48.58800166	      0.00000000	      0.00000000	     46.46084475	    -14.58576958	     11.53542055	     70.34859139	     49.85986389	      0.00000000	      0.00000000
      2.55000000	    -19.47494332	     -4.90840860	    -14.65139718	      0.34464501	      1.22671781	     -0.27831520	      0.00000000	      0.50000000	      0.00000000	      0.25000000	     54.17873530	      4.92279097	      5.14785093	     67.15422414	      1.17206232	     21.03738245	      4.31718432	      0.00000000	      0.00000000	     30.21893502	     -6.76210011	     -0.90309567	     57.19604221	      0.99825926	    -20.72914635	    -21.04394143	      0.00000000	      0.00000000	    -64.10014731	      7.52512245	      7.52754265	     62.61635093	     -3.45725779	     26.58568937	     68.53940182	     48.64573825	      0.00000000	      0.00000000	     46.63354720	    -14.39947142	     11.66838112	     70.46770625	     49.92915907	      0.00000000	      0.00000000
      2.55500000	    -19.67641373	     -4.62656912	    -13.75691447	      0.34415235	      1.22382591	     -0.27955152	      0.00000000	      0.50000000	      0.00000000	      0.25000000	     53.68488247	      4.04197425	      4.82223685	     65.46828962	      1.14263721	     20.55658216	      4.34258531	      0.00000000	      0.00000000	     31.59136844	     -5.92369729	     -0.06784612	     59.70448401	      1.04203982	    -19.41317211	    -21.47823631	      0.00000000	      0.00000000	    -63.73809267	      8.05198674	      7.47381151	     61.64377042	     -3.67019210	     25.18256880	     70.28922732	     48.84048846	      0.00000000	      0.00000000	     46.68274776	    -14.02470583	     12.05012322	     70.77671187	     50.12689345	      0.00000000	      0.00000000
      2.56000000	    -19.73136575	     -4.10654122	    -13.28152065	      0.34376870	      1.22098119	     -0.27988125	      0.00000000	      0.50000000	      0.00000000	      0.25000000	     53.11392759	      3.46357077	      5.10743088	     63.88165597	      1.11494523	     19.83261734	      4.13797469	      0.00000000	      0.00000000	     32.65720618	     -5.20502381	     -0.03912640	     62.04643392	      1.08291456	    -17.84949168	    -21.89759202	      0.00000000	      0.00000000	    -63.41316426	      7.85954230	      7.93926793	     60.14166843	     -4.42279787	     22.94248532	     72.92779777	     49.16213846	      0.00000000	      0.00000000	     47.25143412	    -13.05841381	     12.95176690	     70.50248260	     50.43707590	      0.00000000	      0.00000000
      2.56500000	    -19.47614930	     -3.51296493	    -12.73985356	      0.34353075	      1.21858018	     -0.28049228	      0.00000000	      0.50000000	      0.00000000	      0.25000000	     52.18766730	      2.69935092	      5.37295539	     62.27126436	      1.08683859	     19.21392437	      4.08808754	      0.00000000	      0.00000000	     33.30107575	     -4.31243272	     -0.10155981	     64.19775681	      1.12046223	    -16.57846166	    -22.68262563	      0.00000000	      0.00000000	    -63.27889559	      7.76585541	      7.32173574	     59.88373623	     -4.57064203	     22.79854173	     73.06881685	     49.17983321	      0.00000000	      0.00000000	     47.32825607	    -12.85002741	     13.10511875	     70.49656274	     50.46957323	      0.00000000	      0.00000000
      2.57000000	    -19.85501017	     -3.23774111	    -11.80039280	      0.34282026	      1.21463497	     -0.28156432	      0.00000000	      0.50000000	      0.00000000	      0.25000000	     51.94592841	      1.90897471	      4.95242734	     60.87267557	      1.06242861	     18.25322264	      3.35741952	      0.00000000	      0.00000000	     34.99185982	     -3.61603939	      0.35590406	     66.73631792	      1.16476848	    -15.14076789	    -23.18561388	      0.00000000	      0.00000000	    -62.53266978	      8.35580455	      7.34308758	     58.89487094	     -4.87012503	     21.60358622	     74.55777086	     49.36181096	      0.00000000	      0.00000000	     47.38253614	    -12.51455168	     13.66413816	     70.50580121	     50.66794556	      0.00000000	      0.00000000
      2.57500000	    -19.92574148	     -2.80668554	    -11.09546919	      0.34233298	      1.21138498	     -0.28204498	      0.00000000	      0.50000000	      0.00000000	      0.25000000	     51.34051748	      1.23901824	      4.98019243	     59.41313640	      1.03695485	     17.34224394	      2.89447030	      0.00000000	      0.00000000	     36.03027774	     -2.97430126	      0.57847707	     69.23348724	      1.20835231	    -12.34305829	    -22.40326619	      0.00000000	      0.00000000	    -62.05122453	      8.46976996	      7.42122545	     57.83986564	     -5.40158697	     20.33422714	     76.04944668	     49.55816318	      0.00000000	      0.00000000	     47.72121797	    -11.95752383	     14.57300408	     70.07990771	     50.89191109	      0.00000000	      0.00000000
